<svg width="167" height="53" viewBox="0 0 167 53" fill="none" xmlns="http://www.w3.org/2000/svg">
<g clip-path="url(#clip0_240_221)">
<rect width="167" height="53" fill="white"/>
<path d="M42.2346 11.3944L38.5422 8.70898L28.36 11.3944L42.2346 22.6955V11.3944Z" fill="url(#paint0_linear_240_221)"/>
<path d="M38.5422 29.633L42.2348 28.4021V38.6964L38.5422 39.7033V29.633Z" fill="url(#paint1_linear_240_221)"/>
<path d="M42.2346 38.6964V11.3945L52.0811 18.4437V36.1228L42.2346 38.6964Z" fill="url(#paint2_linear_240_221)"/>
<path d="M28.36 52.4589V11.3942L38.5422 8.70874V49.7735L28.36 52.4589Z" fill="url(#paint3_linear_240_221)"/>
<path d="M14.4848 46.417H10.4567V32.99H14.4848V46.417Z" fill="url(#paint4_linear_240_221)"/>
<path d="M24.8008 43.6194L14.4766 46.4168V11.0584L10.4567 12.1775L19.6661 0.540771L28.8071 7.25409L24.8008 8.36731V43.6194Z" fill="url(#paint5_linear_240_221)"/>
<path d="M10.4569 16.4299V46.4172L0.162659 34.2209V19.2273L10.4569 16.4299Z" fill="url(#paint6_linear_240_221)"/>
<path d="M70.7033 25.1273C74.2201 25.1273 76.8691 23.072 76.8691 19.6466V8.82201H73.2153V19.3268C73.2153 20.5372 72.6444 21.5648 70.7033 21.5648C68.7622 21.5648 68.1912 20.5372 68.1912 19.3268V8.82201H64.5374V19.6466C64.5374 23.072 67.1864 25.1273 70.7033 25.1273ZM85.556 8.82201H79.5043V24.8076H83.1581V19.7836H85.556C88.7074 19.7836 91.1509 17.3401 91.1509 14.3028C91.1509 11.2655 88.7074 8.82201 85.556 8.82201ZM85.556 16.3581H83.1581V12.2475H85.556C86.6749 12.2475 87.4971 13.1381 87.4971 14.3028C87.4971 15.4675 86.6749 16.3581 85.556 16.3581ZM108.689 15.9014H100.673V19.0985H104.943C104.372 20.6285 102.979 21.5648 100.856 21.5648C97.7498 21.5648 95.8315 19.578 95.8315 16.8605C95.8315 14.0516 97.8411 12.0648 100.536 12.0648C102.34 12.0648 103.779 12.8869 104.441 13.9374L107.547 12.1562C106.199 10.0095 103.619 8.5023 100.559 8.5023C95.8544 8.5023 92.1777 12.2018 92.1777 16.8377C92.1777 21.4278 95.7858 25.1273 100.81 25.1273C105.286 25.1273 108.689 22.1586 108.689 17.2715V15.9014ZM119.152 24.8076H123.08L119.678 18.9386C121.436 18.048 122.623 16.2667 122.623 14.3028C122.623 11.2655 120.18 8.82201 117.143 8.82201H110.748V24.8076H114.402V19.5552H116.138L119.152 24.8076ZM114.402 12.2475H117.143C118.147 12.2475 118.97 13.1381 118.97 14.3028C118.97 15.4675 118.147 16.3581 117.143 16.3581H114.402V12.2475ZM134.961 24.8076H138.957L133.522 8.82201H128.863L123.428 24.8076H127.424L128.224 22.2956H134.161L134.961 24.8076ZM129.32 18.8701L131.193 13.0011L133.065 18.8701H129.32ZM146.714 8.82201H140.32V24.8076H146.714C151.122 24.8076 154.479 21.3365 154.479 16.8148C154.479 12.2932 151.122 8.82201 146.714 8.82201ZM146.714 21.2908H143.974V12.3388H146.714C149.226 12.3388 150.962 14.0744 150.962 16.8148C150.962 19.5552 149.226 21.2908 146.714 21.2908ZM160.187 21.2908V18.459H165.896V14.9879H160.187V12.3388H166.467V8.82201H156.533V24.8076H166.581V21.2908H160.187ZM74.8138 46.8076H78.8102L73.3751 30.822H68.7165L63.2814 46.8076H67.2778L68.0771 44.2956H74.0146L74.8138 46.8076ZM69.1732 40.8701L71.0458 35.0011L72.9184 40.8701H69.1732ZM95.4192 37.9014H87.4036V41.0985H91.674C91.1031 42.6285 89.7101 43.5648 87.5863 43.5648C84.4805 43.5648 82.5622 41.578 82.5622 38.8605C82.5622 36.0516 84.5718 34.0648 87.2666 34.0648C89.0706 34.0648 90.5094 34.8869 91.1716 35.9374L94.2774 34.1562C92.93 32.0095 90.3495 30.5023 87.2894 30.5023C82.5851 30.5023 78.9084 34.2018 78.9084 38.8377C78.9084 43.4278 82.5165 47.1273 87.5406 47.1273C92.0166 47.1273 95.4192 44.1586 95.4192 39.2715V37.9014ZM101.133 43.2908V40.459H106.842V36.9879H101.133V34.3388H107.413V30.822H97.4791V46.8076H107.527V43.2908H101.133ZM118.495 30.822V39.4999L112.329 30.822H109.589V46.8076H113.243V38.1297L119.409 46.8076H122.149V30.822H118.495ZM132.515 47.1273C135.438 47.1273 137.996 45.6886 139.366 43.4278L136.214 41.6009C135.529 42.8341 134.136 43.5648 132.515 43.5648C129.683 43.5648 127.856 41.6694 127.856 38.8148C127.856 35.9602 129.683 34.0648 132.515 34.0648C134.136 34.0648 135.507 34.7956 136.214 36.0288L139.366 34.2018C137.973 31.941 135.415 30.5023 132.515 30.5023C127.696 30.5023 124.202 34.1105 124.202 38.8148C124.202 43.5191 127.696 47.1273 132.515 47.1273ZM153.738 30.822H149.582L146.545 36.9879L143.508 30.822H139.351L144.718 40.6646V46.8076H148.372V40.6646L153.738 30.822Z" fill="#101010"/>
</g>
<defs>
<linearGradient id="paint0_linear_240_221" x1="-61.9376" y1="-104.415" x2="56.445" y2="32.766" gradientUnits="userSpaceOnUse">
<stop stop-color="#413EFF"/>
<stop offset="1" stop-color="#1714CD"/>
</linearGradient>
<linearGradient id="paint1_linear_240_221" x1="63.3276" y1="31.2908" x2="39.56" y2="38.1448" gradientUnits="userSpaceOnUse">
<stop stop-color="#413EFF"/>
<stop offset="1" stop-color="#1714CD"/>
</linearGradient>
<linearGradient id="paint2_linear_240_221" x1="50.4027" y1="-0.466123" x2="47.1578" y2="44.6267" gradientUnits="userSpaceOnUse">
<stop stop-color="#1714CD"/>
<stop offset="1" stop-color="#413EFF"/>
</linearGradient>
<linearGradient id="paint3_linear_240_221" x1="36.752" y1="-23.6283" x2="23.8156" y2="75.6397" gradientUnits="userSpaceOnUse">
<stop stop-color="#1714CD"/>
<stop offset="1" stop-color="#413EFF"/>
</linearGradient>
<linearGradient id="paint4_linear_240_221" x1="12.4707" y1="3.58466" x2="12.4707" y2="58.5989" gradientUnits="userSpaceOnUse">
<stop stop-color="#413EFF"/>
<stop offset="1" stop-color="#1714CD"/>
</linearGradient>
<linearGradient id="paint5_linear_240_221" x1="19.6319" y1="-6.15102" x2="19.6319" y2="46.4168" gradientUnits="userSpaceOnUse">
<stop stop-color="#1714CD"/>
<stop offset="1" stop-color="#413EFF"/>
</linearGradient>
<linearGradient id="paint6_linear_240_221" x1="5.37137" y1="14.6396" x2="5.37137" y2="46.4172" gradientUnits="userSpaceOnUse">
<stop stop-color="#1714CD"/>
<stop offset="1" stop-color="#3E3BFC"/>
</linearGradient>
<clipPath id="clip0_240_221">
<rect width="167" height="53" fill="white"/>
</clipPath>
</defs>
</svg>
